<svg xmlns="http://www.w3.org/2000/svg" width="20" height="20" viewBox="0 0 20 20">
  <g id="Iconly_Bulk_Category" data-name="Iconly/Bulk/Category" transform="translate(-0.5)">
    <rect id="Iconly_Bulk_Category_Background_" data-name="Iconly/Bulk/Category (Background)" width="20" height="20" transform="translate(0.5)" fill="none"/>
    <g id="chat-square-dots-fill" transform="translate(0.5 -0.798)">
      <path id="Path_421" data-name="Path 421" d="M5.2,4A3.2,3.2,0,0,0,2,7.2v4.8a3.2,3.2,0,0,0,3.2,3.2H7.25l2.175,2.174a.793.793,0,0,0,1.126,0l2.2-2.174H14.8a3.2,3.2,0,0,0,3.2-3.2V7.2A3.2,3.2,0,0,0,14.8,4Z" transform="translate(0 0)" fill="#d3d9ea"/>
      <path id="Path_422" data-name="Path 422" d="M8.6,10.8a.8.8,0,1,1-.8-.8A.8.8,0,0,1,8.6,10.8Zm3.2,0A.8.8,0,1,1,11,10,.8.8,0,0,1,11.8,10.8Zm2.4.8a.8.8,0,1,0-.8-.8A.8.8,0,0,0,14.2,11.6Z" transform="translate(-1 -1.2)" fill="rgba(211,217,234,0.4)" fill-rule="evenodd"/>
    </g>
  </g>
</svg>
