<svg xmlns="http://www.w3.org/2000/svg" width="20" height="20" viewBox="0 0 20 20">
  <g id="Iconly_Bulk_Category" data-name="Iconly/Bulk/Category" transform="translate(-0.5)">
    <rect id="Iconly_Bulk_Category_Background_" data-name="Iconly/Bulk/Category (Background)" width="20" height="20" transform="translate(0.5)" fill="none"/>
    <g id="credit-card-fill" transform="translate(0.5)">
      <path id="Path_415" data-name="Path 415" d="M2,15.6A2.4,2.4,0,0,0,4.4,18H15.6A2.4,2.4,0,0,0,18,15.6V10H2Zm3.989-4a.8.8,0,0,0-.8.8V14a.8.8,0,0,0,.8.8h1.6a.8.8,0,0,0,.8-.8V12.4a.8.8,0,0,0-.8-.8Z" transform="translate(0 -1.2)" fill="#d3d9ea" fill-rule="evenodd"/>
      <path id="Path_416" data-name="Path 416" d="M2,7.2V6.4A2.4,2.4,0,0,1,4.4,4H15.6A2.4,2.4,0,0,1,18,6.4v.8Z" fill="rgba(211,217,234,0.4)"/>
    </g>
  </g>
</svg>
