<svg xmlns="http://www.w3.org/2000/svg" width="20" height="20" viewBox="0 0 20 20">
  <g id="Iconly_Bulk_Category" data-name="Iconly/Bulk/Category" transform="translate(-0.5)">
    <rect id="Iconly_Bulk_Category_Background_" data-name="Iconly/Bulk/Category (Background)" width="20" height="20" transform="translate(0.5)" fill="none"/>
    <g id="Setting" transform="translate(2 1.053)">
      <path id="Path" d="M0,2.532A2.56,2.56,0,0,1,2.6,0a2.528,2.528,0,1,1,0,5.055A2.553,2.553,0,0,1,0,2.532Z" transform="translate(5.914 6.424)" fill="#d3d9ea"/>
      <path id="Path-2" data-name="Path" d="M16.018,10.361a1.384,1.384,0,0,1-.567-.573,1.63,1.63,0,0,1,.585-2.237,1.814,1.814,0,0,0,.677-2.532L16.1,3.964a1.89,1.89,0,0,0-2.569-.68,1.765,1.765,0,0,1-2.3-.617,1.383,1.383,0,0,1-.21-.787,1.591,1.591,0,0,0-.247-.948A1.926,1.926,0,0,0,9.142,0H7.852A1.964,1.964,0,0,0,6.234.931a1.6,1.6,0,0,0-.256.948,1.383,1.383,0,0,1-.21.787,1.757,1.757,0,0,1-2.3.617,1.9,1.9,0,0,0-2.579.68L.281,5.019A1.829,1.829,0,0,0,.958,7.552a1.641,1.641,0,0,1,.594,2.237,1.462,1.462,0,0,1-.576.573,1.9,1.9,0,0,0-.732.707A1.785,1.785,0,0,0,.263,12.9l.631,1.074a1.909,1.909,0,0,0,1.628.931,1.934,1.934,0,0,0,.969-.268,1.419,1.419,0,0,1,.8-.206,1.693,1.693,0,0,1,1.682,1.628,1.852,1.852,0,0,0,1.9,1.834H9.123a1.85,1.85,0,0,0,1.893-1.834,1.708,1.708,0,0,1,1.692-1.628,1.459,1.459,0,0,1,.8.206,1.876,1.876,0,0,0,2.588-.662l.64-1.074a1.806,1.806,0,0,0,.018-1.834A2.06,2.06,0,0,0,16.018,10.361Z" transform="translate(0)" fill="#d3d9ea" opacity="0.4"/>
    </g>
  </g>
</svg>
