<svg xmlns="http://www.w3.org/2000/svg" width="20" height="20" viewBox="0 0 20 20">
  <g id="Iconly_Bulk_Category" data-name="Iconly/Bulk/Category" transform="translate(-0.5)">
    <rect id="Iconly_Bulk_Category_Background_" data-name="Iconly/Bulk/Category (Background)" width="20" height="20" transform="translate(0.5)" fill="none"/>
    <g id="phone-vibrate-fill" transform="translate(-0.5 -1)">
      <path id="Path_413" data-name="Path 413" d="M2.5,8.605a.9.9,0,0,1,1.14-.556.888.888,0,0,1,.528,1.14,7.11,7.11,0,0,0-.389,2.363,7.2,7.2,0,0,0,.417,2.391.873.873,0,0,1-.556,1.112.887.887,0,0,1-1.14-.528,9.022,9.022,0,0,1,0-5.921Zm15.111.612A.873.873,0,0,1,18.167,8.1a.857.857,0,0,1,1.111.528,8.978,8.978,0,0,1,.5,2.919,8.826,8.826,0,0,1-.5,2.974.9.9,0,1,1-1.7-.584,7.128,7.128,0,0,0,.028-4.726Zm-6.722,7.672A.89.89,0,1,0,10,16,.889.889,0,0,0,10.889,16.889Z" transform="translate(0 -0.556)" fill="rgba(211,217,234,0.4)" fill-rule="evenodd"/>
      <path id="Path_414" data-name="Path 414" d="M6,6.111A3.111,3.111,0,0,1,9.111,3h4.444a3.111,3.111,0,0,1,3.111,3.111v9.778A3.111,3.111,0,0,1,13.556,19H9.111A3.111,3.111,0,0,1,6,15.889Zm5.333,10.222a.889.889,0,1,0-.889-.889A.889.889,0,0,0,11.333,16.333Z" transform="translate(-0.444)" fill="#d3d9ea" fill-rule="evenodd"/>
    </g>
  </g>
</svg>
