<svg xmlns="http://www.w3.org/2000/svg" width="229" height="195" viewBox="0 0 229 195">
  <g id="Group_766" data-name="Group 766" transform="translate(-61)">
    <path id="Shape" d="M3.085,195A3.1,3.1,0,0,1,0,191.9V3.1A3.1,3.1,0,0,1,3.085,0H198.914A3.1,3.1,0,0,1,202,3.1V191.9a3.1,3.1,0,0,1-3.085,3.1Z" transform="translate(83)" fill="#e6e6e6"/>
    <path id="Path" d="M1.246,0A1.248,1.248,0,0,0,0,1.246V52.754A1.248,1.248,0,0,0,1.246,54H52.754A1.248,1.248,0,0,0,54,52.754V1.246A1.248,1.248,0,0,0,52.754,0Z" transform="translate(70 27)" fill="#d5d3d3"/>
    <path id="b9d15c13-74bb-46fd-a6fd-5a7002be597d" d="M1.461,0a1.5,1.5,0,0,0,0,3H71.486a1.482,1.482,0,0,0,1.3-.727,1.513,1.513,0,0,0,.024-1.5A1.483,1.483,0,0,0,71.535,0H1.461Z" transform="translate(176 54)" fill="#d5d3d3"/>
    <path id="fb98932a-aea9-43a1-946e-96a095a0002f" d="M1.461,0a1.5,1.5,0,0,0,0,3H21.487a1.482,1.482,0,0,0,1.3-.727,1.513,1.513,0,0,0,.024-1.5A1.483,1.483,0,0,0,21.535,0H1.461Z" transform="translate(176 40)" fill="#d5d3d3"/>
    <path id="a8382d7c-76a2-4f66-b41d-b5784413a475" d="M1.461,0a1.5,1.5,0,0,0,0,3H71.494a1.5,1.5,0,0,0,.049-3H1.461Z" transform="translate(176 68)" fill="#d5d3d3"/>
    <path id="a69b3c31-ebec-4776-89b9-9c88b713759e" d="M100.57,26H3.43C1.537,26,0,24.906,0,23.559V2.441C0,1.094,1.537,0,3.43,0H100.57C102.463,0,104,1.094,104,2.441V23.559C104,24.906,102.463,26,100.57,26Z" transform="translate(176 89)" fill="#d5d3d3"/>
    <path id="acccf4df-3a09-4c7b-a8c8-af469fe66e6d" d="M3.43,26C1.536,26,0,24.907,0,23.559V2.441C0,1.094,1.536,0,3.43,0h97.14C102.463,0,104,1.094,104,2.441V23.558c0,1.347-1.537,2.44-3.431,2.442Z" transform="translate(186 106)" fill="#1b224e"/>
    <path id="ac481be8-039b-4a38-bb10-2d9a81406e5c" d="M100.57,26H3.43C1.537,26,0,24.906,0,23.559V2.441C0,1.094,1.537,0,3.43,0H100.57C102.463,0,104,1.094,104,2.441V23.559C104,24.906,102.463,26,100.57,26Z" transform="translate(95 147)" fill="#e6e6e6"/>
    <path id="e05581d0-cd6a-412e-af3c-57495fab8d46" d="M3.43,26C1.536,26,0,24.907,0,23.559V2.441C0,1.094,1.536,0,3.43,0h97.14C102.463,0,104,1.094,104,2.441V23.558c0,1.347-1.537,2.44-3.431,2.442Z" transform="translate(66 158)" fill="#1b224e"/>
    <path id="f4993879-8a0d-4ea4-907e-e549be7081a0" d="M1.47,0a1.5,1.5,0,0,0,0,3H57.485a1.5,1.5,0,0,0,.049-3H1.47Z" transform="translate(217 113)" fill="#78778e"/>
    <path id="a649136c-96b9-48c7-9686-75389104c34a" d="M1.47,0a1.5,1.5,0,0,0,0,3H57.485a1.5,1.5,0,0,0,.049-3H1.47Z" transform="translate(217 121)" fill="#78778e"/>
    <path id="bf4cb793-0df2-4753-9628-c376ea3545d1" d="M1.47,0a1.5,1.5,0,0,0,0,3H57.485a1.5,1.5,0,0,0,.049-3H1.47Z" transform="translate(99 166)" fill="#78778e"/>
    <path id="bf2170fd-291c-4664-b596-01f8e04656d6" d="M1.47,0a1.5,1.5,0,0,0,0,3H57.485a1.5,1.5,0,0,0,.049-3H1.47Z" transform="translate(99 174)" fill="#78778e"/>
    <path id="Shape-2" data-name="Shape" d="M2.052,55A2.052,2.052,0,0,1,0,52.948V2.052A2.052,2.052,0,0,1,2.052,0h50.9A2.052,2.052,0,0,1,55,2.052v50.9A2.052,2.052,0,0,1,52.948,55Z" transform="translate(61 32)" fill="#1b224e"/>
  </g>
</svg>
