<?xml version="1.0" encoding="utf-8"?>
<!-- Generator: Adobe Illustrator 26.5.0, SVG Export Plug-In . SVG Version: 6.00 Build 0)  -->
<svg version="1.1" id="Layer_1" xmlns="http://www.w3.org/2000/svg" xmlns:xlink="http://www.w3.org/1999/xlink" x="0px" y="0px"
	 viewBox="0 0 34 34" style="enable-background:new 0 0 34 34;" xml:space="preserve">
<style type="text/css">
	.st0{enable-background:new    ;}
	.st1{fill:#9C95D1;}
</style>
<g class="st0">
	<path class="st1" d="M17.7,23.4h1.4v2.1c0,1.2-1,2.1-2.1,2.1H8.5c-1.2,0-2.1-1-2.1-2.1V12.8c0-1.2,1-2.1,2.1-2.1h6.4v9.9
		C14.9,22.1,16.1,23.4,17.7,23.4z M24.8,10.7H29v9.2c0,1.2-1,2.1-2.1,2.1h-8.5c-1.2,0-2.1-1-2.1-2.1V7.1c0-1.2,1-2.1,2.1-2.1h5v4.2
		C23.3,10,24,10.7,24.8,10.7z M29,9.2h-4.2V5L29,9.2z"/>
</g>
</svg>
