<svg xmlns="http://www.w3.org/2000/svg" width="18" height="18" viewBox="0 0 18 18">
  <path id="Zachary_Parker" data-name="Zachary Parker" d="M17.67-13.267,15.516-15.42a1.122,1.122,0,0,0-.8-.33H8.968a2.25,2.25,0,0,0-2.25,2.25v9A2.3,2.3,0,0,0,9-2.25h6.75A2.257,2.257,0,0,0,18-4.5v-7.972A1.126,1.126,0,0,0,17.67-13.267ZM16.313-4.5a.563.563,0,0,1-.562.563H8.968A.562.562,0,0,1,8.406-4.5v-9a.563.563,0,0,1,.563-.562h4.5l.032,1.683a1.125,1.125,0,0,0,1.125,1.125h1.656V-4.5ZM9.563,0A.563.563,0,0,1,9,.563H2.218A.562.562,0,0,1,1.656,0l.031-9a.563.563,0,0,1,.562-.562H5.625V-11.25H2.25A2.25,2.25,0,0,0,0-9V0A2.251,2.251,0,0,0,2.25,2.25H9A2.257,2.257,0,0,0,11.25,0V-1.125H9.594Z" transform="translate(0 15.75)" fill="#9c95d1"/>
</svg>
