<svg xmlns="http://www.w3.org/2000/svg" width="71.428" height="65.857" viewBox="0 0 71.428 65.857">
  <g id="disconnect" transform="translate(-1.27 -2.9)">
    <circle id="Ellipse_197" data-name="Ellipse 197" cx="5.68" cy="5.68" r="5.68" transform="translate(31.438 48.324)" fill="#89878d" stroke="#fff" stroke-width="3"/>
    <path id="Path_38077" data-name="Path 38077" d="M52.782,36.056l3.029-3.029a3.749,3.749,0,0,0-5.3-5.3l-3.029,3.029-3.029-3.029a3.749,3.749,0,0,0-5.3,5.3l3.029,3.029L39.15,39.085a3.66,3.66,0,0,0,0,5.3,3.66,3.66,0,0,0,5.3,0l3.029-3.029,3.029,3.029a3.66,3.66,0,0,0,5.3,0,3.66,3.66,0,0,0,0-5.3l-3.029-3.029ZM22.868,12.2A18.331,18.331,0,0,0,9.236,18.259a3.66,3.66,0,0,0,0,5.3,3.66,3.66,0,0,0,5.3,0,10.82,10.82,0,0,1,16.282,0A4.09,4.09,0,0,0,33.47,24.7a4.09,4.09,0,0,0,2.651-1.136,3.66,3.66,0,0,0,0-5.3A16.943,16.943,0,0,0,22.868,12.2Z" transform="translate(14.25 21.735)" fill="#89878d" stroke="#fff" stroke-width="3"/>
    <path id="Path_38078" data-name="Path 38078" d="M47.731,23.068a3.66,3.66,0,0,0,5.3,0,3.66,3.66,0,0,0,0-5.3A34.023,34.023,0,0,0,29.934,8.3a33.328,33.328,0,0,0-23.1,9.466,3.66,3.66,0,0,0,0,5.3,3.66,3.66,0,0,0,5.3,0,25.5,25.5,0,0,1,18.176-7.573c6.816,0,12.117,2.651,17.418,7.573Z" transform="translate(7.562 10.868)" fill="#89878d" stroke="#fff" stroke-width="3"/>
    <path id="Path_38079" data-name="Path 38079" d="M64.76,22.576a3.66,3.66,0,0,0,5.3,0c1.515-1.515,1.136-3.787-.379-5.3A48.718,48.718,0,0,0,36.739,4.4,48.1,48.1,0,0,0,4.175,16.9,4.055,4.055,0,0,0,3.8,22.2a4.055,4.055,0,0,0,5.3.379c8.331-7.195,17.8-10.981,28.021-10.981A40.592,40.592,0,0,1,64.76,22.576Z" transform="translate(0 0)" fill="#89878d" stroke="#fff" stroke-width="3"/>
  </g>
</svg>
