<svg xmlns="http://www.w3.org/2000/svg" width="18" height="23.143" viewBox="0 0 18 23.143">
  <path id="medication_FILL0_wght400_GRAD0_opsz48" d="M17.714,24.354h2.539V20.786h3.664V18.214H20.254V14.646H17.714v3.568H14.082v2.571h3.632Zm-5.786,4.789A1.921,1.921,0,0,1,10,27.214v-15.4a1.921,1.921,0,0,1,1.929-1.929H26.071A1.921,1.921,0,0,1,28,11.818v15.4a1.921,1.921,0,0,1-1.929,1.929Zm0-1.929H26.071v-15.4H11.929ZM11.286,7.929V6H26.746V7.929Zm.643,3.889v0Z" transform="translate(-10 -6)" fill="#84818a"/>
</svg>
