<svg xmlns="http://www.w3.org/2000/svg" width="17.181" height="14.911" viewBox="0 0 17.181 14.911">
  <g id="Layer_2" data-name="Layer 2" transform="translate(-0.412 -0.412)">
    <g id="Layer_1" data-name="Layer 1" transform="translate(0)">
      <path id="Path_425" data-name="Path 425" d="M20.181,7.785a5.127,5.127,0,0,1-.355,1.882H16.16L15.328,8a.741.741,0,0,0-1.29,0l-1.416,2.833-.386-.771a.742.742,0,0,0-1.291,0l-.386.771L9.143,8a.741.741,0,0,0-1.29,0L7.021,9.667H3.355A5.127,5.127,0,0,1,3,7.785,4.534,4.534,0,0,1,7.467,3a4.551,4.551,0,0,1,3.941,2.635l.181.336.181-.336A4.559,4.559,0,0,1,15.714,3,4.533,4.533,0,0,1,20.181,7.785Z" transform="translate(-2.588 -2.588)" fill="#fa4676"/>
      <path id="Path_428" data-name="Path 428" d="M26.224,54.731a28.776,28.776,0,0,1-4.873,4.71l-.236.2c-.686.575-1.385,1.169-2.135,1.82a.318.318,0,0,1-.4,0c-.76-.66-1.492-1.276-2.137-1.821l-.235-.2a28.881,28.881,0,0,1-4.873-4.71h3.324a.716.716,0,0,0,.645-.4l.386-.771L17.1,56.394a.742.742,0,0,0,1.29,0l.386-.771.387.771a.722.722,0,0,0,1.29,0L21.87,53.56l.386.773a.718.718,0,0,0,.645.4Z" transform="translate(-9.775 -46.21)" fill="#fa4676"/>
    </g>
  </g>
</svg>
