<svg xmlns="http://www.w3.org/2000/svg" width="18" height="18.001" viewBox="0 0 18 18.001">
  <g id="injection" transform="translate(-1.003 -1.001)">
    <path id="Path_429" data-name="Path 429" d="M23.952,17.195l-6.4,6.4,2.6,2.6,6.4-6.4a.308.308,0,0,0,.086-.276,4.034,4.034,0,0,0-2.412-2.412A.308.308,0,0,0,23.952,17.195Z" transform="translate(-12.035 -11.711)" fill="#fff"/>
    <path id="Path_432" data-name="Path 432" d="M22.026,24.5l-4.475,4.476,2.6,2.6,2.958-2.958Z" transform="translate(-12.035 -17.089)" fill="#fa4676"/>
    <path id="Path_434" data-name="Path 434" d="M13.373,39.476l-.434.434a.307.307,0,0,0,0,.434L16.191,43.6a.307.307,0,0,0,.434,0l.434-.434a.307.307,0,0,0,0-.434l-3.252-3.252A.307.307,0,0,0,13.373,39.476Z" transform="translate(-8.615 -27.916)" fill="#7a7983"/>
    <rect id="Rectangle_690" data-name="Rectangle 690" width="3.292" height="2.147" transform="matrix(0.707, -0.707, 0.707, 0.707, 2.863, 15.622)" fill="#7a7983"/>
    <path id="Path_435" data-name="Path 435" d="M5.647,55.609a.612.612,0,0,1-.867,0l-2.6-2.6a.613.613,0,1,1,.867-.867l2.6,2.6A.615.615,0,0,1,5.647,55.609Z" transform="translate(-0.724 -37.06)" fill="#7a7983"/>
    <path id="Path_436" data-name="Path 436" d="M18.923,1.081a.273.273,0,0,0-.386,0L14.663,4.954l-.132-.132a.592.592,0,0,0-.819,0l-.662.662a2.4,2.4,0,0,0-.806-.354.578.578,0,0,0-.52.161L5.516,11.5l-.132-.132a.593.593,0,0,0-.819,0l-.434.434a.579.579,0,0,0,0,.819l.674.674L2.864,15.236l-.349-.349a.906.906,0,0,0-1.253,0,.887.887,0,0,0,0,1.253l2.6,2.6a.886.886,0,0,0,1.253-1.253l-.349-.349L6.709,15.2l.674.674a.579.579,0,0,0,.819,0l.434-.434a.579.579,0,0,0,0-.819L8.5,14.487l2.765-2.765,3.444-3.444a.581.581,0,0,0,.161-.52,2.393,2.393,0,0,0-.353-.8l.663-.663a.58.58,0,0,0,0-.819l-.133-.133,3.874-3.874A.273.273,0,0,0,18.923,1.081ZM4.731,18.356a.348.348,0,0,1-.482,0l-2.6-2.6a.341.341,0,0,1,.482-.482c3.938,3.94,0,0,2.6,2.6A.341.341,0,0,1,4.731,18.356Zm1.592-3.543L4.382,16.754,3.25,15.622,5.191,13.68Zm1.927.241-.434.434a.033.033,0,0,1-.024.01L4.516,12.235v-.048l.434-.434H5L8.25,15.005A.038.038,0,0,1,8.25,15.053ZM8.118,14.1,5.9,11.885l.979-.979.349.349a.273.273,0,0,0,.386-.386l-.349-.349.915-.915.349.349a.273.273,0,0,0,.386-.386L8.567,9.22,9.849,7.939l.923,3.509Zm6.208-6.208L11.219,11,10.3,7.492l.795-.8.349.349a.273.273,0,0,0,.386-.386l-.349-.349.634-.634a.037.037,0,0,1,.032-.011,3.828,3.828,0,0,1,2.2,2.195A.036.036,0,0,1,14.326,7.893Zm.47-1.986-.6.6a5.733,5.733,0,0,0-.7-.7l.6-.6h.048l.65.651A.035.035,0,0,1,14.8,5.907Z" transform="translate(0)" fill="#7a7983"/>
  </g>
</svg>
