<svg id="integration_instructions" xmlns="http://www.w3.org/2000/svg" width="18" height="20" viewBox="0 0 18 20">
  <g id="Group">
    <path id="Vector" d="M16,2H11.82A2.988,2.988,0,0,0,6.18,2H2a1.752,1.752,0,0,0-.4.04A2.021,2.021,0,0,0,.16,3.23,1.926,1.926,0,0,0,0,4V18a2.052,2.052,0,0,0,.16.78,2.119,2.119,0,0,0,.43.64,2.008,2.008,0,0,0,1.01.55A2.6,2.6,0,0,0,2,20H16a2.006,2.006,0,0,0,2-2V4A2.006,2.006,0,0,0,16,2ZM8,13.17,6.59,14.59,3,11,6.59,7.41,8,8.83,5.83,11ZM9,3.25a.75.75,0,1,1,.75-.75A.755.755,0,0,1,9,3.25Zm2.41,11.34L10,13.17,12.17,11,10,8.83l1.41-1.42L15,11Z" fill="#84818a"/>
  </g>
</svg>
