<svg xmlns="http://www.w3.org/2000/svg" xmlns:xlink="http://www.w3.org/1999/xlink" width="20" height="23" viewBox="0 0 20 23">
  <defs>
    <clipPath id="clip-path">
      <rect id="Notification_clip_mask_" data-name="Notification (clip mask)" width="8" height="8" fill="none"/>
    </clipPath>
  </defs>
  <g id="Notification" transform="translate(-4)">
    <g id="notifications" transform="translate(4 3.5)">
      <path id="Vector" d="M8,19.5a2.006,2.006,0,0,0,2-2H6A2,2,0,0,0,8,19.5Zm6-6v-5c0-3.07-1.64-5.64-4.5-6.32V1.5a1.5,1.5,0,0,0-3,0v.68C3.63,2.86,2,5.42,2,8.5v5l-2,2v1H16v-1Z" fill="#84818a"/>
    </g>
    <g id="Notification-2" data-name="Notification" transform="translate(16)">
      <rect id="Notification_clip_mask_2" data-name="Notification (clip mask)" width="8" height="8" fill="none"/>
      <g id="Notification-3" data-name="Notification" clip-path="url(#clip-path)">
        <g id="Notification_clip_group_" data-name="Notification (clip group)" transform="translate(0 -4)">
          <rect id="Shape" width="8" height="8" rx="4" transform="translate(0 4)" fill="#fc3400"/>
        </g>
      </g>
    </g>
  </g>
</svg>
