<svg xmlns="http://www.w3.org/2000/svg" width="25.502" height="25.55" viewBox="0 0 25.502 25.55">
  <path id="phone" d="M26.111,20v3.62a2.413,2.413,0,0,1-2.631,2.413,23.881,23.881,0,0,1-10.414-3.7,23.531,23.531,0,0,1-7.24-7.24,23.881,23.881,0,0,1-3.7-10.462A2.413,2.413,0,0,1,4.523,2h3.62a2.413,2.413,0,0,1,2.413,2.076A15.494,15.494,0,0,0,11.4,7.466a2.413,2.413,0,0,1-.543,2.546L9.326,11.545a19.307,19.307,0,0,0,7.24,7.24L18.1,17.253a2.413,2.413,0,0,1,2.546-.543,15.494,15.494,0,0,0,3.391.845A2.413,2.413,0,0,1,26.111,20Z" transform="translate(-1.361 -1.25)" fill="#fff" stroke="#fff" stroke-linecap="round" stroke-linejoin="round" stroke-width="1.5"/>
</svg>
