<svg xmlns="http://www.w3.org/2000/svg" width="19.582" height="19" viewBox="0 0 19.582 19">
  <path id="person_FILL0_wght400_GRAD0_opsz48" d="M17.791,18.129A4.4,4.4,0,0,1,13.2,13.539,4.4,4.4,0,0,1,17.791,8.95a4.4,4.4,0,0,1,4.589,4.589,4.4,4.4,0,0,1-4.589,4.589ZM8,27.95V25.074a3.367,3.367,0,0,1,.581-1.989,3.732,3.732,0,0,1,1.5-1.254,23,23,0,0,1,3.932-1.377A15.893,15.893,0,0,1,17.791,20a15.225,15.225,0,0,1,3.763.474,26.063,26.063,0,0,1,3.916,1.362A3.689,3.689,0,0,1,27,23.085a3.367,3.367,0,0,1,.581,1.989V27.95Zm1.836-1.836h15.91v-1.04a1.676,1.676,0,0,0-.291-.933,1.842,1.842,0,0,0-.719-.658,16.247,16.247,0,0,0-3.58-1.3,15.83,15.83,0,0,0-3.366-.352,16.26,16.26,0,0,0-3.4.352,15.54,15.54,0,0,0-3.58,1.3,1.841,1.841,0,0,0-.979,1.591Zm7.955-9.821a2.669,2.669,0,0,0,2.754-2.754,2.754,2.754,0,1,0-5.507,0,2.669,2.669,0,0,0,2.754,2.754ZM17.791,13.539ZM17.791,26.114Z" transform="translate(-8 -8.95)" fill="#84818a"/>
</svg>
