<svg xmlns="http://www.w3.org/2000/svg" width="22" height="22" viewBox="0 0 22 22">
  <path id="info_FILL0_wght400_GRAD0_opsz48" d="M14.258,20.5h1.65V13.9h-1.65ZM15,11.865a.9.9,0,0,0,.646-.248.833.833,0,0,0,.261-.632.924.924,0,0,0-.261-.66.9.9,0,0,0-1.292,0,.924.924,0,0,0-.261.66.833.833,0,0,0,.261.633.9.9,0,0,0,.646.247ZM15,26a10.644,10.644,0,0,1-4.263-.866,11.083,11.083,0,0,1-5.871-5.871,10.988,10.988,0,0,1,0-8.552A10.993,10.993,0,0,1,7.231,7.218a11.276,11.276,0,0,1,3.506-2.351,10.988,10.988,0,0,1,8.552,0,10.983,10.983,0,0,1,5.844,5.844,10.988,10.988,0,0,1,0,8.552,11.276,11.276,0,0,1-2.351,3.506,10.993,10.993,0,0,1-3.493,2.365A10.711,10.711,0,0,1,15,26Zm.027-1.65a8.965,8.965,0,0,0,6.6-2.736,9.066,9.066,0,0,0,2.722-6.641,8.988,8.988,0,0,0-2.722-6.6A9.02,9.02,0,0,0,15,5.65,9.033,9.033,0,0,0,8.386,8.373,9,9,0,0,0,5.65,15a9.01,9.01,0,0,0,2.736,6.614A9.043,9.043,0,0,0,15.028,24.35ZM15,15Z" transform="translate(-4 -4)" fill="#5542f6"/>
</svg>
