<svg id="settings_applications" xmlns="http://www.w3.org/2000/svg" width="18" height="18" viewBox="0 0 18 18">
  <path id="Vector" d="M9,7a2,2,0,1,0,2,2A2.006,2.006,0,0,0,9,7Zm7-7H2A2,2,0,0,0,0,2V16a2,2,0,0,0,2,2H16a2,2,0,0,0,2-2V2A2,2,0,0,0,16,0ZM14.25,9a5.061,5.061,0,0,1-.05.68l1.48,1.16a.353.353,0,0,1,.08.45l-1.4,2.42a.354.354,0,0,1-.43.15l-1.74-.7a5.363,5.363,0,0,1-1.18.69l-.26,1.85a.363.363,0,0,1-.35.3H7.6a.364.364,0,0,1-.35-.29l-.26-1.85a5.142,5.142,0,0,1-1.18-.69l-1.74.7a.354.354,0,0,1-.43-.15L2.24,11.3a.353.353,0,0,1,.08-.45L3.8,9.69A5.337,5.337,0,0,1,3.75,9a5.061,5.061,0,0,1,.05-.68L2.32,7.16a.353.353,0,0,1-.08-.45l1.4-2.42a.354.354,0,0,1,.43-.15l1.74.7a5.363,5.363,0,0,1,1.18-.69L7.25,2.3A.363.363,0,0,1,7.6,2h2.8a.364.364,0,0,1,.35.29l.26,1.85a5.142,5.142,0,0,1,1.18.69l1.74-.7a.354.354,0,0,1,.43.15l1.4,2.42a.353.353,0,0,1-.08.45L14.2,8.31a5.337,5.337,0,0,1,.05.69Z" fill="#84818a"/>
</svg>
