<svg xmlns="http://www.w3.org/2000/svg" width="18" height="14.612" viewBox="0 0 18 14.612">
  <g id="thorax" transform="translate(-15 -37.283)">
    <path id="Path_445" data-name="Path 445" d="M32.7,51.371h-.865l.018-.017a2.325,2.325,0,0,0,.49-1.364V48.137a.192.192,0,0,0,0-.055V46.834a4.4,4.4,0,0,0-.059-.647.275.275,0,0,0-.009-.059,4.93,4.93,0,0,0-.211-.848l-.2-.528a7.148,7.148,0,0,0-.742-1.394l-2.875-4.006a1.854,1.854,0,0,0-1.342-.689H26.13a.913.913,0,0,0-.913.91v1.6a.261.261,0,0,0,.522,0v-1.6a.39.39,0,0,1,.391-.389h.783a1.33,1.33,0,0,1,.918.471l1.654,2.3.35.488.575.8.346.485a6.924,6.924,0,0,1,.51.923l.257.653.056.15a4.366,4.366,0,0,1,.177.7l.069.905V49.99A1.8,1.8,0,0,1,31.471,51a1.532,1.532,0,0,1-.951.37H27.869a1.441,1.441,0,0,1-.956-.463l-1.21-1.54a2.281,2.281,0,0,1-.4-1.15v-2.29a.264.264,0,0,0-.029-.121l-.5-.944V37.574a.211.211,0,0,0,0-.029.262.262,0,1,0-.523,0v7.38a.257.257,0,0,0,.03.121l.494.944v2.227a2.785,2.785,0,0,0,.51,1.473l1.21,1.54a1.3,1.3,0,0,0,.13.141H21.365a1.321,1.321,0,0,0,.132-.141l1.209-1.54a2.77,2.77,0,0,0,.51-1.473V45.991l.5-.944a.257.257,0,0,0,.03-.121v-7.38a.262.262,0,0,0-.261-.261h0a.259.259,0,0,0-.258.261.211.211,0,0,0,0,.029v7.287l-.5.944a.265.265,0,0,0-.03.121v2.29a2.28,2.28,0,0,1-.4,1.15l-1.21,1.54a1.443,1.443,0,0,1-.956.463H17.477a1.532,1.532,0,0,1-.95-.37,1.8,1.8,0,0,1-.355-1.011V47.068l.072-.907a4.285,4.285,0,0,1,.176-.7l.056-.153.258-.655a7.036,7.036,0,0,1,.51-.921l.346-.485.575-.8.35-.487,1.653-2.3a1.33,1.33,0,0,1,.918-.471h.783a.391.391,0,0,1,.391.389v1.6a.261.261,0,1,0,.522,0v-1.6a.913.913,0,0,0-.913-.91h-.783a1.854,1.854,0,0,0-1.342.689l-2.875,4.006a7.149,7.149,0,0,0-.742,1.394l-.2.528a5.343,5.343,0,0,0-.28,1.553V49.99a2.314,2.314,0,0,0,.492,1.364l.018.017H15.3a.263.263,0,1,0,0,.522H32.7a.263.263,0,1,0,0-.522Z" transform="translate(0)" fill="#2d4356"/>
    <path id="Path_446" data-name="Path 446" d="M39.642,79.24v.939a3.721,3.721,0,0,1-2.71.848h-2.18a.261.261,0,0,1-.193-.086,3.737,3.737,0,0,1-.837-2.721,3.3,3.3,0,0,0-.938-2.735,2.247,2.247,0,0,0-.188-.145v-.609a2.83,2.83,0,0,1,.451.3h1.537a2.869,2.869,0,0,0,2.688-1.834.269.269,0,0,1,.03-.053l.35.488a3.386,3.386,0,0,1-3.068,1.921H33.547a3.188,3.188,0,0,1,.42.783H35.5A2.868,2.868,0,0,0,38.185,74.5a.264.264,0,0,1,.042-.069l.346.485a3.385,3.385,0,0,1-3.074,1.94H34.123a4.978,4.978,0,0,1,.111.783h2.177a2.867,2.867,0,0,0,2.671-1.8l.257.653a3.379,3.379,0,0,1-2.928,1.667H34.243c0,.027,0,.053,0,.081a4.875,4.875,0,0,0,.044.832h2.645a2.87,2.87,0,0,0,2.641-1.727l.069.905a3.39,3.39,0,0,1-2.71,1.343H34.4a2.651,2.651,0,0,0,.472.913h2.06C38.438,80.505,39.277,80.114,39.642,79.24Zm-8.6-4.508v.61c-.064.044-.127.091-.187.142a3.3,3.3,0,0,0-.937,2.735,3.743,3.743,0,0,1-.837,2.721.262.262,0,0,1-.194.086H26.7a3.725,3.725,0,0,1-2.713-.849v-.944c.365.878,1.2,1.272,2.713,1.272h2.061a2.651,2.651,0,0,0,.472-.913H26.7a3.392,3.392,0,0,1-2.713-1.346l.072-.907A2.87,2.87,0,0,0,26.7,79.071H29.35a4.875,4.875,0,0,0,.044-.832c0-.027,0-.053,0-.081H27.225a3.383,3.383,0,0,1-2.931-1.67l.258-.655a2.865,2.865,0,0,0,2.673,1.8H29.4a4.979,4.979,0,0,1,.111-.783H28.138a3.385,3.385,0,0,1-3.076-1.941l.346-.485a.276.276,0,0,1,.043.07,2.868,2.868,0,0,0,2.687,1.834h1.531a3.188,3.188,0,0,1,.42-.783H29.051a3.386,3.386,0,0,1-3.068-1.924l.35-.487a.284.284,0,0,1,.031.055,2.868,2.868,0,0,0,2.687,1.834h1.538A2.714,2.714,0,0,1,31.037,74.732Z" transform="translate(-7.817 -31.178)" fill="#fa4676"/>
  </g>
</svg>
